<svg height='100px' width='100px'  fill="#00b2ff" xmlns="http://www.w3.org/2000/svg" xmlns:xlink="http://www.w3.org/1999/xlink" viewBox="0 0 100 100" version="1.1" x="0px" y="0px"><title>Shape</title><desc>Created with Sketch.</desc><g stroke="none" stroke-width="1" fill="none" fill-rule="evenodd"><path d="M5,46.3827866 C5,34.6854586 9.44485276,24.0262816 16.7377014,16.0021124 L21.4048904,20.2410991 C15.129553,27.145637 11.3048468,36.3175578 11.3048468,46.3827866 C11.3048468,56.4468853 15.1286941,65.6178765 21.4027766,72.5221482 L16.7355876,76.7611349 C9.44399389,68.7372319 5,58.0789845 5,46.3827866 Z M78.5953035,72.5242608 C84.8705258,65.6197473 88.6951532,56.4479117 88.6951532,46.3827866 C88.6951532,36.3165313 84.8696669,27.1437663 78.5931895,20.2389867 L83.2603786,16 C90.5543671,24.0244108 95,34.6844321 95,46.3827866 C95,58.080011 90.555226,68.7391027 83.2624925,76.7632475 L78.5953035,72.5242608 Z M24.1861338,46.3827866 C24.1861338,39.5817563 26.7705468,33.3843479 31.0108618,28.7190725 L35.6780509,32.9580592 C32.455247,36.5037034 30.4909806,41.2138555 30.4909806,46.3827866 C30.4909806,51.5505876 32.4543881,56.2598101 35.6759371,59.8051882 L31.008748,64.0441749 C26.7696879,59.3791656 24.1861338,53.1826868 24.1861338,46.3827866 Z M43.0478644,46.3548735 C43.0478644,42.5156673 46.1601559,39.4033758 49.9993621,39.4033758 C53.8385683,39.4033758 56.9508599,42.5156673 56.9508599,46.3548735 C56.9508599,49.457055 54.918822,52.0846285 52.1131915,52.9791491 L58.1,83.5 L41.9,83.5 L47.8867441,52.9795352 C45.0804871,52.0853848 43.0478644,49.4575014 43.0478644,46.3548735 Z M64.3215616,59.8073007 C67.5442504,56.2616809 69.508438,51.5516141 69.508438,46.3827866 C69.508438,41.212829 67.5433913,36.5018326 64.3194475,32.9559469 L68.9866366,28.7169602 C73.2280916,33.3824772 75.8132848,39.5807298 75.8132848,46.3827866 C75.8132848,53.1837133 73.2289506,59.3810364 68.9887506,64.0462874 L64.3215616,59.8073007 Z" fill="rgba(255, 255, 255, 0.55)" fill-rule="nonzero"></path></g></svg>
